<svg xmlns="http://www.w3.org/2000/svg" viewBox="0 0 64 64" fill="none">
  <defs>
    <linearGradient id="g" x1="8" y1="56" x2="56" y2="8" gradientUnits="userSpaceOnUse">
      <stop stop-color="#E8FF00"/>
      <stop offset="1" stop-color="#FBBF24"/>
    </linearGradient>
  </defs>
  <rect x="6" y="6" width="52" height="52" rx="14" fill="#0A0A0A"/>
  <path d="M18 30c0-3.314 2.686-6 6-6h2v-3a3 3 0 0 1 3-3h6a3 3 0 0 1 3 3v3h2c3.314 0 6 2.686 6 6v4c0 3.314-2.686 6-6 6h-2v3a3 3 0 0 1-3 3h-6a3 3 0 0 1-3-3v-3h-2c-3.314 0-6-2.686-6-6v-4Z" fill="url(#g)" opacity="0.9"/>
  <path d="M26 24h12v16H26z" fill="#0A0A0A" opacity="0.55"/>
  <path d="M24 26h2v12h-2c-2.209 0-4-1.791-4-4v-4c0-2.209 1.791-4 4-4Zm16 0h-2v12h2c2.209 0 4-1.791 4-4v-4c0-2.209-1.791-4-4-4Z" fill="#0A0A0A" opacity="0.55"/>
</svg>
